PathFileType	4	(X/Y/Z)	C:\Users\°ÂÌØÂü\Desktop\20210112\bx_y_10_1801-Unnamed.trc
DataRate	CameraRate	NumFrames	NumMarkers	Units	OrigDataRate	OrigDataStartFrame	OrigNumFrames
50.00	50.00	       8	0	mm	50.00	235	       468
Frame#	Time	
		

235	4.680	-693.10626	244.70897	1535.97253	-518.19257	-72.55714	143.22356	-676.24426	175.65010	158.10068	-694.87585	141.38629	583.99200	-739.73224	-63.04339	714.27936	-711.61682	155.04419	217.22691	-723.14709	272.89539	887.27631	-677.38678	-110.33526	1530.63684	-715.54657	-40.70493	566.74878	-901.36499	82.22647	1050.70874	-779.13617	249.92729	503.21960	-747.54456	268.22595	754.12024	-741.05615	240.70648	578.58948	-717.51831	70.06558	217.69809	-712.49719	-44.04652	618.06995	-629.85474	67.14795	1407.05310	-666.23254	-72.27616	158.54089	-751.37402	243.93555	639.22833	-772.70435	223.95549	204.37791	-623.74786	-82.16570	156.55240	-882.62927	296.10678	144.71510	-676.98041	50.83069	162.40367	-605.12842	15.87858	171.08749	-562.81055	-39.04935	163.63890	-733.89923	-86.55301	871.17657	-595.93048	224.54987	174.53513	-667.18024	300.72906	158.63718	-629.47174	307.91980	161.16441	-561.37360	260.89264	165.22609	-528.19397	304.31708	146.31877	-621.62396	67.65433	1835.52136	-662.98480	-0.49717	520.16333	-662.31958	204.33952	835.50110	-796.47357	173.74533	183.68413	-681.71490	63.83395	581.84473	-771.35089	-10.72076	205.90242	-796.17383	51.73954	175.32538	-765.63300	-45.13943	487.79996	-876.02838	-78.54763	141.55200				-681.24194	204.30890	539.12744	-653.73041	-26.80420	822.11707	
236	4.700	-687.81604	243.48586	1533.19177	-518.01587	-72.35984	143.11533	-676.15063	175.76062	158.23004	-694.43164	142.29337	583.76147	-740.89410	-62.99630	713.76471	-711.18274	155.40305	217.01448	-727.08929	273.14642	887.04095	-671.60754	-111.37837	1527.14087	-714.87408	-40.93676	566.11127	-902.50861	81.33192	1049.73804	-778.96606	250.48848	502.91824	-749.62274	269.13693	753.76898	-740.68994	241.19633	578.86658	-717.42041	70.12547	217.57219	-712.27515	-44.24166	617.50671	-627.33087	65.92860	1403.22192	-666.32281	-72.25551	158.76538	-751.83270	244.32683	638.68066	-772.76453	224.21852	204.40178	-623.81775	-81.95945	156.61946	-882.66138	296.22351	144.66956	-676.76117	50.84255	162.38298	-605.08649	16.00611	171.00360	-562.81055	-39.04935	163.63890	-737.37897	-86.58797	870.35034	-596.05762	224.57452	174.61127	-667.28198	300.82794	158.52934	-629.45288	308.05679	160.98239	-561.37360	260.89264	165.22609	-528.24188	304.25183	146.46689	-610.14691	66.09121	1831.13293	-662.44659	-1.39806	519.50153	-665.63947	204.35583	836.03259	-796.79059	173.61160	184.43806	-680.65314	63.43869	581.58655	-771.38739	-10.82017	205.84518	-796.09686	51.77673	175.33148	-765.27448	-45.53481	487.70297	-876.03320	-78.59757	141.50241	-698.98694	-27.79984	1051.39514	-681.04944	204.87560	538.99884	-656.44769	-27.43658	821.98767	
237	4.720	-682.10742	241.82722	1530.21216	-518.10638	-72.58040	143.34946	-676.20447	176.05574	158.62169	-694.16449	143.16859	583.58044	-742.11084	-63.04024	712.45496	-711.34790	155.31500	217.15726	-730.68567	273.57620	886.85889	-665.81769	-112.87225	1523.24500	-714.54132	-41.55344	566.01703	-909.18195	80.97552	1050.41248	-778.58710	251.11977	502.87955	-751.54419	270.21936	753.81299	-740.39178	242.13676	578.52289	-717.70032	69.82616	217.55014	-712.23914	-44.56817	617.23230	-624.48090	64.67190	1399.10571	-666.26025	-72.47483	158.65224	-752.17572	244.80742	638.15076	-772.82953	224.29112	204.26520	-623.76416	-82.25665	156.47446	-882.58478	296.15625	144.63521	-676.86646	50.74532	162.29184	-605.15942	15.98154	170.89738	-562.86493	-39.02567	163.74834	-741.16663	-86.56386	869.10590	-596.08197	224.60545	174.71761	-667.18634	300.94574	158.42662	-629.45288	308.05679	160.98239	-561.39941	260.93491	165.34114	-528.23157	304.09830	146.25015	-598.57819	63.81480	1826.24109	-661.87988	-1.79752	519.21887	-669.24170	204.57124	836.12531	-796.79248	174.02734	184.18289	-680.06293	62.73691	581.67218	-771.31189	-11.01280	205.87166	-796.03406	51.75115	175.37953	-764.83246	-45.89882	487.58142	-876.13934	-78.71100	141.67271	-702.37140	-27.87276	1049.74084	-680.55487	205.94098	538.90295	-659.13110	-27.27878	821.71295	
238	4.740	-676.15643	240.77957	1526.94373	-518.19946	-72.62632	143.12608	-676.26855	176.20303	158.73363	-693.65570	143.84140	583.98743	-743.61145	-64.08727	711.48804	-711.34790	155.31500	217.15726	-734.97058	272.31454	886.34540	-660.05542	-113.49977	1518.42383	-714.36584	-41.69541	565.09155	-911.67072	80.58083	1049.68225	-778.24780	251.94617	503.03418	-753.83179	270.93845	753.53040	-740.34015	242.76991	578.68811	-717.43030	70.04272	217.60364	-711.89764	-45.05352	617.30505	-621.01709	63.53146	1395.30359	-666.19238	-72.32774	158.56445	-752.00024	246.15596	638.08765	-772.75720	224.31630	204.31502	-623.76416	-82.25665	156.47446	-882.53522	296.16849	144.69659	-676.68958	50.73449	162.25092	-605.10022	16.03660	170.83739	-562.74951	-39.03406	163.70129	-744.28613	-86.87720	868.10870	-596.15955	224.64880	174.57680	-667.20300	300.82623	158.49188	-629.51996	308.21930	160.82707	-561.29236	261.08780	165.26204	-528.16992	304.03085	146.29980	-587.21710	62.40883	1820.87976	-661.16724	-2.54880	519.08893	-672.19940	204.71744	836.19934	-796.57184	174.15327	183.97186	-680.20917	62.53031	581.19141	-771.27338	-11.08784	205.86427	-796.07336	51.59198	175.43825	-763.97125	-46.64375	487.48688	-876.10980	-78.86684	141.15924				-679.91193	206.44258	539.17139	-662.31689	-27.61272	821.56219	
239	4.760	-670.57648	239.31860	1523.17578	-518.05121	-72.67997	143.22409	-676.13690	175.92152	158.78900	-693.78296	144.74547	583.80902	-744.50201	-64.14067	709.96698	-711.34790	155.31500	217.15726	-738.71490	272.56964	885.69684	-653.78369	-114.04839	1513.60718	-713.81085	-42.15884	565.11060				-777.70624	252.80096	502.94308	-755.92682	270.92130	752.79077	-739.88135	243.79651	578.12042	-717.83813	69.59957	217.45827	-711.80017	-45.70525	617.06689	-617.76147	62.52222	1390.55420	-666.19653	-72.38434	158.51576	-752.17755	246.80083	637.77802	-772.60992	224.35120	204.20673	-623.76416	-82.25665	156.47446	-882.58203	296.12552	144.56668	-676.75024	50.87818	162.25656	-605.23108	15.97299	170.80351	-562.82782	-39.05839	163.74739	-747.60089	-86.81730	867.11792	-596.14581	224.60149	174.43153	-667.19147	300.82840	158.46260	-629.53772	308.17145	160.90219	-561.21985	261.19196	165.26381	-528.26813	304.20227	146.54773	-575.87799	60.53858	1815.11279	-661.06952	-2.80618	519.03241	-675.81934	204.79845	836.51965	-796.50012	174.27040	183.93150	-680.03613	62.25314	581.40729	-771.27338	-11.08784	205.86427	-796.03406	51.75115	175.37953	-763.72296	-47.27431	487.18451	-875.19482	-78.19515	141.05583				-679.65381	207.17326	539.04211	-664.98669	-27.35581	821.58545	
240	4.780	-665.99799	238.62067	1519.44043	-518.16400	-72.61564	143.20425	-676.22894	176.29900	158.85902	-693.40405	145.30014	583.55603	-745.99701	-64.31108	709.44031	-711.60803	155.17821	217.43378	-742.40637	273.48715	886.35181	-648.02338	-115.57076	1508.92432	-713.65051	-42.69894	564.90552	-717.23999	-27.94325	1046.90637	-777.37689	253.07957	502.52832	-758.68097	271.58862	751.92896	-739.64124	244.76071	578.04321	-717.98096	69.28147	217.59462	-712.18945	-45.63838	616.39191	-614.48962	61.21559	1385.29480	-666.26184	-72.59966	158.66689	-752.40009	247.47672	637.08807	-772.68219	224.32600	204.15689	-623.76416	-82.25665	156.47446	-882.70941	296.17542	144.57637	-676.87506	50.92792	162.49481	-605.12946	16.01747	170.86043	-562.69031	-39.20799	163.58707	-750.83038	-87.35046	866.90668	-596.31232	224.71416	174.43250	-667.15625	300.95770	158.31024	-629.53772	308.17145	160.90219	-561.16516	261.22400	165.27411	-528.27039	304.32910	146.70470	-563.92926	58.82417	1808.58179	-661.01587	-2.92510	519.19800	-679.62476	204.59077	836.49866	-796.44519	174.33188	184.03073	-680.51538	61.17427	581.34869	-771.20587	-11.27910	205.72081	-796.26514	51.51050	175.49387	-763.29120	-47.94359	486.73782	-875.58746	-78.46107	141.23264	-714.39130	193.84961	1065.10168	-678.73682	208.02524	539.18890	-667.84717	-28.29790	821.63647	
241	4.800	-658.63922	236.86807	1514.46643	-517.87183	-72.51967	143.30914	-676.01215	176.02248	158.86540	-692.97260	146.40341	583.73602	-747.79187	-64.95561	708.75482	-711.19232	155.48175	217.29282	-746.79871	273.21405	885.23047	-642.02576	-116.52548	1503.03040	-713.61920	-43.79258	565.25061	-721.46448	-27.97434	1044.24194	-777.03821	253.69260	502.34149	-760.75696	272.10440	751.52899	-739.09802	245.54025	578.16638	-718.04602	69.43216	217.49599	-712.65460	-46.66394	616.50836	-613.08563	61.16250	1378.79675	-666.24377	-72.41499	158.49896	-752.63434	248.00552	636.67218	-772.78430	224.34230	204.08907	-623.76929	-82.22809	156.49550	-882.60828	296.14606	144.65137	-677.19672	50.88075	162.39757	-605.14154	16.11849	170.74332	-562.69672	-39.03614	163.86310	-754.18024	-87.60656	866.06366	-596.17816	224.68155	174.57764	-667.18451	301.04553	158.23256	-629.52228	308.27179	160.81946	-561.13977	261.37424	165.19865	-528.20801	304.35791	146.52615	-552.14539	57.57042	1801.67627	-660.75574	-3.58103	519.32874	-682.76630	205.23393	837.38593	-796.43817	174.44655	183.97835	-680.67548	60.75556	581.57635	-771.20587	-11.27910	205.72081	-796.83362	51.37902	175.83386	-763.55652	-48.64412	486.75797	-876.05151	-78.64049	141.43311	-719.31805	194.50093	1062.29822	-678.56689	209.13124	539.00555	
242	4.820	-653.14044	235.46288	1509.15015	-518.05298	-72.68629	143.14311	-676.21332	176.34416	158.90544	-692.58569	146.93707	583.88220	-749.66687	-65.41628	707.71552	-711.32117	155.40993	217.42290	-750.47754	273.36551	884.76166	-636.20612	-117.14015	1497.35925	-713.56012	-44.60191	565.00745	-726.09509	-27.97079	1042.10132	-776.25208	254.09142	501.71741	-763.30780	272.10074	750.33191	-739.06805	246.20752	577.85864	-717.89789	69.25696	217.71832	-712.92169	-46.78175	616.28638	-610.33276	60.21960	1373.17017	-666.25763	-72.50018	158.49336	-753.32770	248.75179	636.54553	-772.68549	224.50020	204.07265	-623.80054	-82.10889	156.55479	-882.50006	296.18253	144.69447	-676.98041	50.83069	162.40367	-605.39508	15.94629	170.76839	-562.76123	-38.95794	163.79039	-757.67773	-87.50499	864.87585	-596.13611	224.87532	174.52171	-667.23230	301.11917	158.16631	-629.56860	308.46533	160.57442	-560.95923	261.45242	165.36572	-528.32208	304.23697	146.41034	-539.99689	56.29139	1794.10474	-660.73126	-4.00990	519.36694	-686.38708	205.20734	836.29688	-796.50604	174.40085	184.30357	-680.84509	60.18926	581.18091	-771.20587	-11.27910	205.72081	-796.89996	51.32177	175.72983	-763.38531	-49.37812	486.66162	-876.05151	-78.64049	141.43311				-678.32611	209.51422	538.65070	-726.66821	193.97314	1059.68433	
